<mxfile host="app.diagrams.net" modified="2023-05-30T20:39:38.714Z" agent="Mozilla/5.0 (Windows NT 10.0; Win64; x64) AppleWebKit/537.36 (KHTML, like Gecko) Chrome/113.0.0.0 Safari/537.36 Edg/113.0.1774.57" etag="aHgD4BDfBu331DWL_cS6" version="21.2.9" type="github">
  <diagram name="Page-1" id="QHWJx9vfp7_xlKNDvbdo">
    <mxGraphModel dx="1379" dy="796" grid="1" gridSize="10" guides="1" tooltips="1" connect="1" arrows="1" fold="1" page="1" pageScale="1" pageWidth="1654" pageHeight="1169" math="0" shadow="0">
      <root>
        <mxCell id="0" />
        <mxCell id="1" parent="0" />
        <mxCell id="uR4vPeJlYV0iMDlabdp6-1" value="Automated Input Minimizer (AIM)" style="verticalAlign=top;align=left;spacingTop=8;spacingLeft=2;spacingRight=12;shape=cube;size=10;direction=south;fontStyle=4;html=1;rounded=0;shadow=0;comic=0;labelBackgroundColor=none;strokeWidth=1;fontFamily=Verdana;fontSize=12;fillColor=none;" vertex="1" parent="1">
          <mxGeometry x="255" y="130" width="960" height="660" as="geometry" />
        </mxCell>
        <mxCell id="uR4vPeJlYV0iMDlabdp6-2" value="" style="strokeWidth=2;html=1;shape=mxgraph.flowchart.start_2;whiteSpace=wrap;fillColor=#000000;" vertex="1" parent="1">
          <mxGeometry x="104" y="220" width="30" height="30" as="geometry" />
        </mxCell>
        <mxCell id="uR4vPeJlYV0iMDlabdp6-3" value="" style="endArrow=classic;html=1;rounded=0;entryX=0;entryY=0.5;entryDx=0;entryDy=0;entryPerimeter=0;exitX=1;exitY=0.5;exitDx=0;exitDy=0;exitPerimeter=0;" edge="1" parent="1" source="uR4vPeJlYV0iMDlabdp6-2" target="uR4vPeJlYV0iMDlabdp6-6">
          <mxGeometry width="50" height="50" relative="1" as="geometry">
            <mxPoint x="174" y="235" as="sourcePoint" />
            <mxPoint x="234" y="239" as="targetPoint" />
          </mxGeometry>
        </mxCell>
        <mxCell id="uR4vPeJlYV0iMDlabdp6-4" value="&lt;font style=&quot;font-size: 15px;&quot;&gt;initial &lt;br&gt;input set&lt;/font&gt;" style="text;html=1;align=center;verticalAlign=middle;resizable=0;points=[];autosize=1;strokeColor=none;fillColor=none;" vertex="1" parent="1">
          <mxGeometry x="160" y="189" width="80" height="50" as="geometry" />
        </mxCell>
        <mxCell id="uR4vPeJlYV0iMDlabdp6-5" style="edgeStyle=orthogonalEdgeStyle;rounded=0;orthogonalLoop=1;jettySize=auto;html=1;exitX=0.5;exitY=1;exitDx=0;exitDy=0;exitPerimeter=0;entryX=0.502;entryY=0.609;entryDx=0;entryDy=0;entryPerimeter=0;" edge="1" parent="1" source="uR4vPeJlYV0iMDlabdp6-6" target="uR4vPeJlYV0iMDlabdp6-33">
          <mxGeometry relative="1" as="geometry" />
        </mxCell>
        <mxCell id="uR4vPeJlYV0iMDlabdp6-6" value="Pre-processing" style="points=[[0.25,0,0],[0.5,0,0],[0.75,0,0],[1,0.25,0],[1,0.5,0],[1,0.75,0],[0.75,1,0],[0.5,1,0],[0.25,1,0],[0,0.75,0],[0,0.5,0],[0,0.25,0]];shape=mxgraph.bpmn.task;whiteSpace=wrap;rectStyle=rounded;size=10;html=1;taskMarker=abstract;strokeColor=#121212;fontSize=15;fillColor=#fdfcfc;" vertex="1" parent="1">
          <mxGeometry x="625" y="195" width="200" height="80" as="geometry" />
        </mxCell>
        <mxCell id="uR4vPeJlYV0iMDlabdp6-7" value="&lt;font style=&quot;font-size: 15px;&quot;&gt;refined input set&lt;br&gt;&lt;/font&gt;" style="text;html=1;align=center;verticalAlign=middle;resizable=0;points=[];autosize=1;strokeColor=none;fillColor=none;" vertex="1" parent="1">
          <mxGeometry x="730" y="325" width="130" height="30" as="geometry" />
        </mxCell>
        <mxCell id="uR4vPeJlYV0iMDlabdp6-8" style="edgeStyle=orthogonalEdgeStyle;rounded=0;orthogonalLoop=1;jettySize=auto;html=1;exitX=1;exitY=0.5;exitDx=0;exitDy=0;exitPerimeter=0;" edge="1" parent="1" source="uR4vPeJlYV0iMDlabdp6-9" target="uR4vPeJlYV0iMDlabdp6-11">
          <mxGeometry relative="1" as="geometry" />
        </mxCell>
        <mxCell id="uR4vPeJlYV0iMDlabdp6-9" value="Clustering Outputs" style="points=[[0.25,0,0],[0.5,0,0],[0.75,0,0],[1,0.25,0],[1,0.5,0],[1,0.75,0],[0.75,1,0],[0.5,1,0],[0.25,1,0],[0,0.75,0],[0,0.5,0],[0,0.25,0]];shape=mxgraph.bpmn.task;whiteSpace=wrap;rectStyle=rounded;size=10;html=1;taskMarker=abstract;strokeColor=#121212;fontSize=15;fillColor=#fdfcfc;" vertex="1" parent="1">
          <mxGeometry x="295" y="459" width="200" height="80" as="geometry" />
        </mxCell>
        <mxCell id="uR4vPeJlYV0iMDlabdp6-10" style="edgeStyle=orthogonalEdgeStyle;rounded=0;orthogonalLoop=1;jettySize=auto;html=1;" edge="1" parent="1" source="uR4vPeJlYV0iMDlabdp6-11" target="uR4vPeJlYV0iMDlabdp6-18">
          <mxGeometry relative="1" as="geometry" />
        </mxCell>
        <mxCell id="uR4vPeJlYV0iMDlabdp6-11" value="Clustering Inputs" style="points=[[0.25,0,0],[0.5,0,0],[0.75,0,0],[1,0.25,0],[1,0.5,0],[1,0.75,0],[0.75,1,0],[0.5,1,0],[0.25,1,0],[0,0.75,0],[0,0.5,0],[0,0.25,0]];shape=mxgraph.bpmn.task;whiteSpace=wrap;rectStyle=rounded;size=10;html=1;taskMarker=abstract;strokeColor=#121212;fontSize=15;fillColor=#fdfcfc;" vertex="1" parent="1">
          <mxGeometry x="625" y="459" width="200" height="80" as="geometry" />
        </mxCell>
        <mxCell id="uR4vPeJlYV0iMDlabdp6-12" value="" style="sketch=0;outlineConnect=0;fontColor=#232F3E;gradientColor=none;fillColor=#232F3D;strokeColor=none;dashed=0;verticalLabelPosition=bottom;verticalAlign=top;align=center;html=1;fontSize=12;fontStyle=0;aspect=fixed;pointerEvents=1;shape=mxgraph.aws4.documents;" vertex="1" parent="1">
          <mxGeometry x="181" y="151" width="31.18" height="38" as="geometry" />
        </mxCell>
        <mxCell id="uR4vPeJlYV0iMDlabdp6-13" value="" style="sketch=0;pointerEvents=1;shadow=0;dashed=0;html=1;strokeColor=none;fillColor=#505050;labelPosition=center;verticalLabelPosition=bottom;verticalAlign=top;outlineConnect=0;align=center;shape=mxgraph.office.concepts.documents;fontSize=15;" vertex="1" parent="1">
          <mxGeometry x="1255" y="597.5" width="30" height="40" as="geometry" />
        </mxCell>
        <mxCell id="uR4vPeJlYV0iMDlabdp6-14" value="" style="sketch=0;outlineConnect=0;fontColor=#232F3E;gradientColor=none;fillColor=#3399FF;strokeColor=none;dashed=0;verticalLabelPosition=bottom;verticalAlign=top;align=center;html=1;fontSize=12;fontStyle=0;aspect=fixed;pointerEvents=1;shape=mxgraph.aws4.documents;" vertex="1" parent="1">
          <mxGeometry x="765" y="285" width="31.18" height="38" as="geometry" />
        </mxCell>
        <mxCell id="uR4vPeJlYV0iMDlabdp6-15" value="output classes" style="text;html=1;align=center;verticalAlign=middle;resizable=0;points=[];autosize=1;strokeColor=none;fillColor=none;fontSize=15;" vertex="1" parent="1">
          <mxGeometry x="497.88" y="473" width="120" height="30" as="geometry" />
        </mxCell>
        <mxCell id="uR4vPeJlYV0iMDlabdp6-16" style="edgeStyle=orthogonalEdgeStyle;rounded=0;orthogonalLoop=1;jettySize=auto;html=1;entryX=0.5;entryY=0;entryDx=0;entryDy=0;entryPerimeter=0;" edge="1" parent="1" source="uR4vPeJlYV0iMDlabdp6-18" target="uR4vPeJlYV0iMDlabdp6-27">
          <mxGeometry relative="1" as="geometry" />
        </mxCell>
        <mxCell id="uR4vPeJlYV0iMDlabdp6-17" style="edgeStyle=orthogonalEdgeStyle;rounded=0;orthogonalLoop=1;jettySize=auto;html=1;" edge="1" parent="1" source="uR4vPeJlYV0iMDlabdp6-18" target="uR4vPeJlYV0iMDlabdp6-22">
          <mxGeometry relative="1" as="geometry">
            <Array as="points">
              <mxPoint x="995" y="600" />
              <mxPoint x="725" y="600" />
            </Array>
          </mxGeometry>
        </mxCell>
        <mxCell id="uR4vPeJlYV0iMDlabdp6-18" value="IMPRO Component" style="points=[[0.25,0,0],[0.5,0,0],[0.75,0,0],[1,0.25,0],[1,0.5,0],[1,0.75,0],[0.75,1,0],[0.5,1,0],[0.25,1,0],[0,0.75,0],[0,0.5,0],[0,0.25,0]];shape=mxgraph.bpmn.task;whiteSpace=wrap;rectStyle=rounded;size=10;html=1;taskMarker=abstract;strokeColor=#121212;fontSize=15;fillColor=#fdfcfc;" vertex="1" parent="1">
          <mxGeometry x="966" y="459" width="200" height="80" as="geometry" />
        </mxCell>
        <mxCell id="uR4vPeJlYV0iMDlabdp6-19" value="" style="sketch=0;outlineConnect=0;fillColor=#8c3bb5;strokeColor=#9673a6;dashed=0;verticalLabelPosition=bottom;verticalAlign=top;align=center;html=1;fontSize=12;fontStyle=0;aspect=fixed;pointerEvents=1;shape=mxgraph.aws4.documents2;" vertex="1" parent="1">
          <mxGeometry x="881.11" y="440" width="25.77" height="30" as="geometry" />
        </mxCell>
        <mxCell id="uR4vPeJlYV0iMDlabdp6-20" value="action subclasses" style="text;html=1;align=center;verticalAlign=middle;resizable=0;points=[];autosize=1;strokeColor=none;fillColor=none;fontSize=15;" vertex="1" parent="1">
          <mxGeometry x="824" y="472" width="140" height="30" as="geometry" />
        </mxCell>
        <mxCell id="uR4vPeJlYV0iMDlabdp6-21" style="edgeStyle=orthogonalEdgeStyle;rounded=0;orthogonalLoop=1;jettySize=auto;html=1;" edge="1" parent="1" source="uR4vPeJlYV0iMDlabdp6-22" target="uR4vPeJlYV0iMDlabdp6-27">
          <mxGeometry relative="1" as="geometry" />
        </mxCell>
        <mxCell id="uR4vPeJlYV0iMDlabdp6-22" value="Genetic Search&amp;nbsp;" style="points=[[0.25,0,0],[0.5,0,0],[0.75,0,0],[1,0.25,0],[1,0.5,0],[1,0.75,0],[0.75,1,0],[0.5,1,0],[0.25,1,0],[0,0.75,0],[0,0.5,0],[0,0.25,0]];shape=mxgraph.bpmn.task;whiteSpace=wrap;rectStyle=rounded;size=10;html=1;taskMarker=abstract;strokeColor=#121212;fontSize=15;fillColor=#fdfcfc;" vertex="1" parent="1">
          <mxGeometry x="625" y="660" width="200" height="80" as="geometry" />
        </mxCell>
        <mxCell id="uR4vPeJlYV0iMDlabdp6-23" value="" style="ellipse;html=1;shape=endState;fillColor=#000000;strokeColor=#000000;fontSize=15;direction=north;" vertex="1" parent="1">
          <mxGeometry x="1322" y="685" width="30" height="30" as="geometry" />
        </mxCell>
        <mxCell id="uR4vPeJlYV0iMDlabdp6-24" value="minimized &lt;br&gt;input set" style="text;html=1;align=center;verticalAlign=middle;resizable=0;points=[];autosize=1;strokeColor=none;fillColor=none;fontSize=15;" vertex="1" parent="1">
          <mxGeometry x="1225" y="642.5" width="90" height="50" as="geometry" />
        </mxCell>
        <mxCell id="uR4vPeJlYV0iMDlabdp6-25" value="necessary &lt;br&gt;inputs" style="text;html=1;align=center;verticalAlign=middle;resizable=0;points=[];autosize=1;strokeColor=none;fillColor=none;fontSize=15;" vertex="1" parent="1">
          <mxGeometry x="1063" y="600.5" width="90" height="50" as="geometry" />
        </mxCell>
        <mxCell id="uR4vPeJlYV0iMDlabdp6-26" style="edgeStyle=orthogonalEdgeStyle;rounded=0;orthogonalLoop=1;jettySize=auto;html=1;" edge="1" parent="1" source="uR4vPeJlYV0iMDlabdp6-27" target="uR4vPeJlYV0iMDlabdp6-23">
          <mxGeometry relative="1" as="geometry" />
        </mxCell>
        <mxCell id="uR4vPeJlYV0iMDlabdp6-27" value="Post-processing" style="points=[[0.25,0,0],[0.5,0,0],[0.75,0,0],[1,0.25,0],[1,0.5,0],[1,0.75,0],[0.75,1,0],[0.5,1,0],[0.25,1,0],[0,0.75,0],[0,0.5,0],[0,0.25,0]];shape=mxgraph.bpmn.task;whiteSpace=wrap;rectStyle=rounded;size=10;html=1;taskMarker=abstract;strokeColor=#121212;fontSize=15;fillColor=#fdfcfc;" vertex="1" parent="1">
          <mxGeometry x="966" y="660" width="200" height="80" as="geometry" />
        </mxCell>
        <mxCell id="uR4vPeJlYV0iMDlabdp6-28" value="input set &lt;br&gt;components" style="text;html=1;align=center;verticalAlign=middle;resizable=0;points=[];autosize=1;strokeColor=none;fillColor=none;fontSize=15;" vertex="1" parent="1">
          <mxGeometry x="826.89" y="550.5" width="100" height="50" as="geometry" />
        </mxCell>
        <mxCell id="uR4vPeJlYV0iMDlabdp6-29" value="minimized&lt;br&gt; components" style="text;html=1;align=center;verticalAlign=middle;resizable=0;points=[];autosize=1;strokeColor=none;fillColor=none;fontSize=15;" vertex="1" parent="1">
          <mxGeometry x="837" y="647" width="100" height="50" as="geometry" />
        </mxCell>
        <mxCell id="uR4vPeJlYV0iMDlabdp6-30" style="edgeStyle=orthogonalEdgeStyle;rounded=0;orthogonalLoop=1;jettySize=auto;html=1;exitX=0.497;exitY=0.435;exitDx=0;exitDy=0;exitPerimeter=0;" edge="1" parent="1" source="uR4vPeJlYV0iMDlabdp6-33" target="uR4vPeJlYV0iMDlabdp6-11">
          <mxGeometry relative="1" as="geometry" />
        </mxCell>
        <mxCell id="uR4vPeJlYV0iMDlabdp6-31" style="edgeStyle=orthogonalEdgeStyle;rounded=0;orthogonalLoop=1;jettySize=auto;html=1;" edge="1" parent="1" source="uR4vPeJlYV0iMDlabdp6-33" target="uR4vPeJlYV0iMDlabdp6-18">
          <mxGeometry relative="1" as="geometry">
            <Array as="points">
              <mxPoint x="755" y="410" />
              <mxPoint x="1066" y="410" />
            </Array>
          </mxGeometry>
        </mxCell>
        <mxCell id="uR4vPeJlYV0iMDlabdp6-32" style="edgeStyle=orthogonalEdgeStyle;rounded=0;orthogonalLoop=1;jettySize=auto;html=1;" edge="1" parent="1" source="uR4vPeJlYV0iMDlabdp6-33" target="uR4vPeJlYV0iMDlabdp6-9">
          <mxGeometry relative="1" as="geometry">
            <Array as="points">
              <mxPoint x="695" y="410" />
              <mxPoint x="395" y="410" />
            </Array>
          </mxGeometry>
        </mxCell>
        <mxCell id="uR4vPeJlYV0iMDlabdp6-33" value="" style="line;strokeWidth=6;html=1;" vertex="1" parent="1">
          <mxGeometry x="645" y="365" width="160" height="10" as="geometry" />
        </mxCell>
        <mxCell id="uR4vPeJlYV0iMDlabdp6-34" value="" style="sketch=0;outlineConnect=0;fillColor=#dd5e00;strokeColor=#C73500;dashed=0;verticalLabelPosition=bottom;verticalAlign=top;align=center;html=1;fontSize=12;fontStyle=0;aspect=fixed;pointerEvents=1;shape=mxgraph.aws4.documents2;fontColor=#000000;" vertex="1" parent="1">
          <mxGeometry x="544.99" y="442" width="25.77" height="30" as="geometry" />
        </mxCell>
        <mxCell id="uR4vPeJlYV0iMDlabdp6-35" value="" style="shadow=0;dashed=0;html=1;strokeColor=#56517e;fillColor=#d0cee2;labelPosition=center;verticalLabelPosition=bottom;verticalAlign=top;align=center;outlineConnect=0;shape=mxgraph.veeam.checked_doc;" vertex="1" parent="1">
          <mxGeometry x="1093" y="564" width="30" height="41.6" as="geometry" />
        </mxCell>
      </root>
    </mxGraphModel>
  </diagram>
</mxfile>
